# xmcd CD database file
#
# Track frame offsets:
#	150
#	15550
#	32343
#	52870
#	71564
#	90963
#	107971
#	121509
#	138899
#	156429
#	172684
#	194757
#	211166
#	230700
#	251065
#	272978
#	293613
#	313336
#
# Disc length: 4369 seconds
#
# Revision: 0
# Processed by: cddbd v1.5.2PL0 Copyright (c) Steve Scherf et al.
# Submitted via: CDex 1.70beta2
#
DISCID=f5110f12
DTITLE=Michael Connelly - The Brass Verdict Disc 2
DYEAR=2008
DGENRE=Audio Book
TTITLE0=The Brass Verdict Disc 2-01
TTITLE1=The Brass Verdict Disc 2-02
TTITLE2=The Brass Verdict Disc 2-03
TTITLE3=The Brass Verdict Disc 2-04
TTITLE4=The Brass Verdict Disc 2-05
TTITLE5=The Brass Verdict Disc 2-06
TTITLE6=The Brass Verdict Disc 2-07
TTITLE7=The Brass Verdict Disc 2-08
TTITLE8=The Brass Verdict Disc 2-09
TTITLE9=The Brass Verdict Disc 2-10
TTITLE10=The Brass Verdict Disc 2-11
TTITLE11=The Brass Verdict Disc 2-12
TTITLE12=The Brass Verdict Disc 2-13
TTITLE13=The Brass Verdict Disc 2-14
TTITLE14=The Brass Verdict Disc 2-15
TTITLE15=The Brass Verdict Disc 2-16
TTITLE16=The Brass Verdict Disc 2-17
TTITLE17=The Brass Verdict Disc 2-18
EXTD=YEAR: 2008
EXTT0=
EXTT1=
EXTT2=
EXTT3=
EXTT4=
EXTT5=
EXTT6=
EXTT7=
EXTT8=
EXTT9=
EXTT10=
EXTT11=
EXTT12=
EXTT13=
EXTT14=
EXTT15=
EXTT16=
EXTT17=
PLAYORDER=
